<?xml version="1.0" encoding="UTF-8" standalone="no"?>
<!-- Created with Inkscape (http://www.inkscape.org/) by Marsupilami -->
<svg xmlns:svg="http://www.w3.org/2000/svg" xmlns="http://www.w3.org/2000/svg" version="1.0" width="1024" height="207" viewBox="0 0 369.11261 74.441002" id="svg2403" xml:space="preserve"><defs id="defs2406"><clipPath id="clipPath2420"><path d="M 0,1186.15 L 0,0 L 3551.57,0 L 3551.57,1186.15 L 0,1186.15 z " id="path2422"/></clipPath></defs><g transform="matrix(1.25,0,0,-1.25,-37.266125,111.51712)" id="g2412"><g transform="scale(0.1,0.1)" id="g2414"><g id="g2416"><g clip-path="url(#clipPath2420)" id="g2418"><path d="M 51.9375,0 L 25.34375,19.125 L 51.9375,29.09375 L 51.9375,0 z M 62.6875,5.40625 L 62.6875,33.125 L 74.28125,37.46875 L 62.6875,41.71875 L 62.6875,58.625 C 62.687499,64.029374 62.57225,66.299375 62.4375,68.3125 L 72.5625,68.3125 C 72.698247,66.753374 72.84375,64.51175 72.84375,61.5 L 72.96875,61.5 C 74.055125,64.177249 76.42625,69.09375 82.625,69.09375 C 90.507624,69.093751 94.9375,59.465875 94.9375,45.4375 C 94.937497,33.606499 91.447625,23.875 82.625,23.875 C 77.652374,23.875001 74.794375,27.090375 73.5,31.03125 L 73.375,31.03125 L 73.375,5.40625 L 62.6875,5.40625 z M 25.25,19.21875 L 0,37.375 L 25.21875,55.375 L 25.25,19.21875 z M 117.65625,23.90625 C 112.0175,23.90625 109.28375,27.087 107.65625,31.875 L 107.53125,31.875 C 107.53125,29.009875 107.38625,26.585375 107.25,24.65625 L 97.53125,24.65625 C 97.73375,26.921375 97.812501,29.589375 97.8125,33.78125 L 97.8125,68.34375 L 108.46875,68.34375 L 108.46875,43.84375 C 108.46875,38.253 109.68375,34.468751 113.21875,34.46875 C 114.98625,34.46875 116.96875,35.8305 116.96875,41.375 L 116.96875,68.34375 L 127.65625,68.34375 L 127.65625,40.625 C 127.65625,37.348625 128.8675,34.468751 132.0625,34.46875 C 134.4425,34.46875 136.15625,36.334875 136.15625,41.375 L 136.15625,68.34375 L 146.8125,68.34375 L 146.8125,39.75 C 146.8125,30.9585 144.23626,23.90625 136.46875,23.90625 C 130.8275,23.90625 128.33875,27.071375 126.78125,31.1875 C 125.295,26.818875 122.7225,23.90625 117.65625,23.90625 z M 165.5,23.90625 C 154.9696,24.482297 149.15625,33.90819 149.15625,47 C 149.15625,55.024 152.18626,69.093751 165.71875,69.09375 C 169.09375,69.09375 172.27124,68.282753 175.375,67.28125 L 175.03125,57.3125 C 173.07375,58.241625 171.03874,59.25 168.8125,59.25 C 164.7625,59.25 160.18749,56.290499 160.1875,47 C 160.1875,45.310625 160.18125,34.156251 168.28125,34.15625 C 170.50875,34.15625 172.5425,35.102001 174.5,36.03125 L 175.03125,26 C 171.9275,24.98925 170.04124,23.90625 166.53125,23.90625 C 166.18176,23.90625 165.83969,23.887668 165.5,23.90625 z M 78.75,32.9375 C 83.518501,32.9375 83.9375,39.54825 83.9375,46.5625 C 83.937497,51.126376 83.65425,59.5625 78.75,59.5625 C 74.322251,59.5625 73.375,51.63325 73.375,46.5625 C 73.375,39.548251 74.390125,32.9375 78.75,32.9375 z M 51.9375,45.6875 L 25.34375,55.46875 L 51.9375,74.4375 L 51.9375,45.6875 z " transform="matrix(8,0,0,-8,298.129,892.13696)" style="fill:#1465af;fill-opacity:1;fill-rule:nonzero;stroke:none" id="path2424"/><path d="M 241.46875,5.78125 C 233.89624,5.78125 232.40625,11.431125 232.40625,17.96875 L 232.40625,24.53125 L 226.59375,24.53125 L 226.59375,29.15625 L 232.40625,29.15625 L 232.40625,68.03125 L 236.5625,68.03125 L 236.5625,29.15625 L 246.75,29.15625 L 246.75,58.8125 C 246.75,63.667001 248.20875,68.625 253.65625,68.625 C 255.63375,68.625001 257.5375,68.46 258.5625,68.03125 L 258.5625,63.0625 C 257.75624,63.48825 257.00875,64 255.03125,64 C 251.44625,63.999999 250.9375,60.92975 250.9375,57.4375 L 250.9375,29.15625 L 257.65625,29.15625 L 266.625,68.03125 L 271.59375,68.03125 L 279.21875,30.125 L 279.34375,30.125 L 287.40625,68.03125 L 292.6875,68.03125 L 302.40625,24.53125 L 298.15625,24.53125 L 290.40625,62.75 L 290.28125,62.75 L 282.0625,24.53125 L 276.65625,24.53125 L 269.125,62.75 L 268.96875,62.75 L 261.125,24.53125 L 250.9375,24.53125 L 250.9375,14.3125 L 246.75,15.84375 L 246.75,24.53125 L 236.5625,24.53125 L 236.5625,17.0625 C 236.56251,13.581 237.61125,10.4375 241.34375,10.4375 C 242.8075,10.4375 243.95375,10.848125 244.6875,11.1875 L 244.6875,6.25 C 243.95376,6.0552502 242.9325,5.78125 241.46875,5.78125 z M 189.21875,23.90625 C 184.2575,23.90625 178.28124,27.780749 178.28125,35.96875 C 178.28125,42.106 180.76124,44.397498 187.03125,48.0625 C 191.40875,50.620125 193.65625,52.323249 193.65625,56.5 C 193.65625,60.420875 190.82499,63.999999 186.8125,64 C 183.38375,64 179.58125,62.054125 178.34375,61.03125 L 177.75,66.59375 C 179.9375,67.538125 182.56,68.625001 187.15625,68.625 C 193.43,68.625 198.1875,63.841873 198.1875,56 C 198.1875,49.01075 194.23,46.80125 189.125,43.5625 C 184.09,40.32325 182.78126,39.443373 182.78125,35.4375 C 182.78125,32.36875 184.7475,28.562499 189.125,28.5625 C 191.5325,28.5625 193.35625,29.405251 195.46875,30.34375 L 196.0625,25.1875 C 194.67875,24.672875 191.69874,23.906249 189.21875,23.90625 z M 214.09375,23.90625 C 203.18875,23.906249 200.125,35.371125 200.125,46.28125 C 200.12501,57.191874 203.18875,68.625 214.09375,68.625 C 225,68.625001 228.0625,57.191875 228.0625,46.28125 C 228.0625,35.371124 225,23.90625 214.09375,23.90625 z M 313.5,23.90625 C 309.38499,23.906249 306.73125,25.550375 303.21875,27.78125 L 303.875,33.09375 C 304.31001,32.664624 308.25375,28.5625 313.25,28.5625 C 321.03874,28.562499 321.0625,36.44875 321.0625,41.9375 L 318.34375,41.9375 C 312.98001,41.937498 300.3125,42.17675 300.3125,56 C 300.31252,63.068374 304.8825,68.625 310.6875,68.625 C 315.53625,68.625001 318.615,66.568875 321.1875,61.78125 L 321.34375,61.78125 L 321.65625,68.03125 L 325.46875,68.03125 C 325.24875,64.791499 325.03125,61.55225 325.03125,58.3125 L 325.03125,38.40625 C 325.03125,35.232876 325.05,23.90625 313.5,23.90625 z M 344.15625,23.90625 C 340.0575,23.90625 336.92501,25.180626 334.21875,31.40625 L 334.0625,31.40625 C 333.99,29.644 333.85501,27.092249 333.78125,24.53125 L 329.875,24.53125 C 329.94875,29.05475 330.18752,33.4785 330.1875,38 L 330.1875,68.03125 L 334.34375,68.03125 L 334.34375,40.625 C 334.34375,32.599625 337.42125,29.1875 344.15625,29.1875 L 344.15625,23.90625 z M 357.21875,23.90625 C 350.9425,23.906249 344.03125,29.918375 344.03125,46.34375 C 344.03126,50.689376 344.03875,68.625 358.625,68.625 C 363.07501,68.625001 365.53375,67.271 367.28125,66.15625 L 367.0625,60.4375 C 364.94999,62.643124 361.4725,64 359.0625,64 C 357.38377,63.999999 348.53125,64.003375 348.53125,47.96875 L 369.125,47.96875 C 369.12502,37.351 368.01375,23.90625 357.21875,23.90625 z M 214.09375,28.5625 C 223.54375,28.562499 223.5625,42.787125 223.5625,46.28125 C 223.5625,49.776374 223.54375,64 214.09375,64 C 204.64625,63.999999 204.65625,49.776375 204.65625,46.28125 C 204.65626,42.787124 204.64625,28.5625 214.09375,28.5625 z M 356.46875,28.5625 C 356.64293,28.545017 356.81984,28.5625 357,28.5625 C 360.4325,28.562499 364.59375,31.80125 364.59375,43.34375 L 348.53125,43.34375 C 348.53124,37.877577 351.06921,29.104471 356.46875,28.5625 z M 321.0625,46.125 L 321.0625,51.25 C 321.06251,63.082 313.7025,64 311.71875,64 C 307.16375,63.999999 304.8125,59.662125 304.8125,56 C 304.8125,46.121124 312.245,46.125 321.0625,46.125 z " transform="matrix(8,0,0,-8,298.129,892.13696)" style="fill:#bbbaba;fill-opacity:1;fill-rule:nonzero;stroke:none" id="path2434"/></g></g></g></g></svg>